# ProBuilder 4.2.3
# https://unity3d.com/unity/features/worldbuilding/probuilder
# 2/18/2020 4:10:30 PM

mtllib ./Surf_Updated.mtl
o Surf_Updated

g Platform A
v 0 0 0
v -20 0 0
v 0 0.5 0
v -20 0.5 0
v -20 0 -11
v -20 0.5 -11
v 0 0 -11
v 0 0.5 -11

vt 0 0
vt -20 0
vt 0 0.5
vt -20 0.5
vt -11 0
vt -11 0.5
vt 20 0
vt 20 0.5
vt 11 0
vt 11 0.5
vt 0 -11
vt 20 -11
vt -20 -11

vn 0 0 1
vn -1 0 0
vn 0 0 -1
vn 1 0 0
vn 0 1 0
vn 0 -1 0

usemtl marble_01_diff_1k
f 3/3/1 4/4/1 2/2/1 1/1/1
f 4/3/2 6/6/2 5/5/2 2/1/2
f 6/8/3 8/3/3 7/1/3 5/7/3
f 8/10/4 3/3/4 1/1/4 7/9/4
f 8/11/5 6/12/5 4/7/5 3/1/5
f 1/1/6 2/2/6 5/13/6 7/11/6

g Surf1
v -15 -4.17 3.879997
v -18 -4.17 3.879997
v -16.5 -1.272223 4.656454
v -24.80071 -17.06983 52.02284
v -23.30071 -14.17206 52.7993
v -35.85064 -27.79377 72.06123
v -32.85064 -27.79377 72.06123
v -34.35064 -24.89599 72.83768
v -21.80071 -17.06983 52.02284

vt 0 0
vt 3 0
vt 1.5 3
vt 0.4055853 -1.319533
vt 50.70855 -1.319533
vt 0.2027926 2.028433
vt 50.50576 2.028433
vt -20.85064 -5.172577
vt -17.85064 -5.172577
vt -19.35064 -2.172578
vt -50.30297 -2.097813E-08
vt -50.50576 3.347965
vt -0.2027926 3.347966
vt -3 0
vt -6.800714 49.84114
vt -9.800714 49.84114
vt -46.78747 -4.712068
vt -46.00062 -7.972568
vt -71.42567 -10.3334
vt -70.63883 -13.5939
vt -6.800714 48.53334
vt -9.800714 48.53334
vt -17.85064 71.26086
vt -20.85064 71.26086
vt 50.05376 3.659984
vt 49.51795 6.971012
vt 74.67194 -2.048462
vt 74.13611 1.262562

vn 0 0.258819 -0.9659259
vn -0.8878397 0.460148 -0.002121037
vn 0 -0.2588141 0.9659272
vn 0.8878397 0.3974393 0.2319108
vn 0 -0.9659259 -0.258819
vn 0.7833479 0.2534066 0.5675835
vn 0 -0.8816799 -0.4718482
vn -0.8462854 0.4924923 -0.2031068

usemtl marble_01_diff_1k
f 9/14/7 10/15/7 11/16/7
f 14/21/9 15/22/9 16/23/9
f 11/19/8 10/17/8 12/18/8
f 12/18/8 13/20/8 11/19/8
f 13/25/10 17/24/10 9/14/10
f 9/14/10 11/26/10 13/25/10
f 12/29/11 10/27/11 9/14/11
f 9/14/11 17/28/11 12/29/11
f 15/33/12 17/31/12 13/30/12
f 13/30/12 16/32/12 15/33/12
f 14/37/13 12/35/13 17/34/13
f 17/34/13 15/36/13 14/37/13
f 16/41/14 13/39/14 12/38/14
f 12/38/14 14/40/14 16/41/14

g Surf2
v -35 -30 80
v -35 -30 77
v -36.02606 -27.18092 78.5
v -53.79385 -36.8404 77
v -54.81992 -34.02132 78.5
v -98.26465 -49.02453 91.74655
v -98.26464 -49.02453 94.74655
v -99.29068 -46.20546 93.24655
v -53.79385 -36.8404 80
v -69.64722 -39.41803 81.09236
v -68.62117 -42.2371 82.59236
v -68.62117 -42.2371 79.59236
v -83.44724 -43.39497 85.71305
v -82.42117 -46.21404 87.21305
v -82.42117 -46.21404 84.21305

vt 0 0
vt 3 0
vt 1.5 3
vt 0 -1.341641
vt 20 -1.341641
vt 0 2.012461
vt 20 2.012461
vt 11.74639 3.760146
vt 14.74639 3.760146
vt 13.24639 6.760138
vt -20 0
vt -20 3.354102
vt 0 3.354102
vt -3 0
vt 0 20
vt -3 20
vt -19.49224 4.77991
vt -19.73542 1.434635
vt -35.48268 4.779905
vt -35.72586 1.434639
vt 2.592364 35.7789
vt -0.4076361 35.7789
vt 19.24907 -2.74446
vt 19.49224 0.6008149
vt 35.2395 -2.744453
vt 35.48268 0.6008123
vt -34.06532 7.398217
vt -34.56939 4.082217
vt -49.11282 8.484521
vt -49.61687 5.168518
vt 2.592364 35.69503
vt -0.4076361 35.69503
vt 7.213056 50.05664
vt 4.213056 50.05664
vt 34.26672 -4.460439
vt 34.68212 -1.132168
vt 49.31392 -3.370117
vt 49.72932 -0.04184625
vt -46.46601 11.48111
vt -47.20185 8.208722
vt -63.97276 14.5111
vt -64.70862 11.23872
vt 7.213056 49.52423
vt 4.213056 49.52423
vt 14.74656 65.61504
vt 11.74656 65.61504
vt 48.24161 -5.102545
vt 48.78384 -1.79257
vt 65.74232 -2.03774
vt 66.28452 1.272241

vn 0.9396927 0.3420201 1.192093E-07
vn -0.1529559 0.4202433 -0.8944273
vn -0.9396949 -0.3420142 2.423923E-06
vn -0.1529562 0.4202433 0.8944273
vn 0.3420201 -0.9396926 0
vn -0.01471208 0.4655034 0.8849239
vn -0.2879496 0.366053 -0.8849239
vn 0.1399667 0.504333 0.8520902
vn 0.2769144 -0.9608946 -8.157601E-09
vn -0.3826744 0.3215693 -0.8661141
vn 0.2859908 0.5291651 0.7988702
vn 0.1746646 -0.984628 -2.057928E-08
vn -0.4523793 0.2849957 -0.8450624

usemtl marble_01_diff_1k
f 18/42/15 19/43/15 20/44/15
f 23/49/17 24/50/17 25/51/17
f 20/47/16 19/45/16 21/46/16
f 21/46/16 22/48/16 20/47/16
f 22/53/18 26/52/18 18/42/18
f 18/42/18 20/54/18 22/53/18
f 21/57/19 19/55/19 18/42/19
f 18/42/19 26/56/19 21/57/19
f 28/61/20 26/59/20 22/58/20
f 22/58/20 27/60/20 28/61/20
f 29/63/19 21/57/19 26/56/19
f 26/56/19 28/62/19 29/63/19
f 27/67/21 22/65/21 21/64/21
f 21/64/21 29/66/21 27/67/21
f 31/71/22 28/69/22 27/68/22
f 27/68/22 30/70/22 31/71/22
f 32/75/23 29/73/23 28/72/23
f 28/72/23 31/74/23 32/75/23
f 30/79/24 27/77/24 29/76/24
f 29/76/24 32/78/24 30/79/24
f 24/83/25 31/81/25 30/80/25
f 30/80/25 25/82/25 24/83/25
f 23/87/26 32/85/26 31/84/26
f 31/84/26 24/86/26 23/87/26
f 25/91/27 30/89/27 32/88/27
f 32/88/27 23/90/27 25/91/27

g Surf3
v -90.41059 -107.5884 -12.99373
v -93.41059 -107.5884 -12.99373
v -91.91059 -104.7692 -14.01973
v -112.58 -61.81 75.55
v -112.58 -54.96959 94.34386
v -111.08 -58.99092 74.52394
v -111.08 -52.15051 93.31779
v -109.58 -54.96959 94.34386
v -109.58 -61.81 75.55
v -109.6014 -77.87292 40.9495
v -111.1014 -80.692 41.97555
v -108.1014 -80.692 41.97555
v -101.4831 -96.19561 9.492633
v -102.9831 -99.01469 10.5187
v -99.98314 -99.01469 10.5187

vt -19.16941 -12.7361
vt -16.16941 -12.7361
vt -17.66941 -9.736086
vt 0 -1.341641
vt 20 -1.341641
vt 0 2.012461
vt 20 2.012461
vt -3 0
vt 0 0
vt -1.5 3
vt -20 0
vt -20 3.354102
vt 0 3.354102
vt 0 20
vt -3 20
vt 0.1805627 2.025118
vt 0.3611254 -1.32412
vt -37.72874 -4.963781
vt -37.54818 -8.313018
vt -1.521378 -38.51978
vt 1.478622 -38.51978
vt 0.06511404 3.35347
vt 37.90768 -6.997727
vt 37.97279 -3.644259
vt -36.22712 -7.88983
vt -35.7742 -11.21321
vt -72.83268 -15.04485
vt -72.37975 -18.36824
vt -1.521378 -38.51538
vt 1.478622 -38.51538
vt 6.596863 -74.91943
vt 9.596863 -74.91943
vt 37.8586 -3.978627
vt 37.65579 -0.6306645
vt 74.45377 -11.18659
vt 74.25096 -7.838617
vt -71.84949 -16.77462
vt -71.31325 -20.08559
vt -98.64449 -16.79104
vt -98.10831 -20.10203
vt 6.596863 -73.84175
vt 9.596863 -73.84175
vt 16.16941 -98.86858
vt 19.16941 -98.86858
vt 72.39478 -4.162977
vt 71.85926 -0.8518944
vt 99.18984 -4.179408
vt 98.65427 -0.8683285

vn 0 -0.3419988 -0.9397004
vn -0.8944272 0.4202433 -0.1529561
vn 0 0.3420203 0.9396926
vn 0.8944272 0.4202433 -0.1529561
vn 0 -0.9396926 0.3420203
vn -0.8892128 0.3809156 -0.253385
vn 0 -0.8716157 0.4901898
vn 0.8937525 0.4066443 -0.1893326
vn -0.8605596 0.311106 -0.4032992
vn 0 -0.8641032 0.5033147
vn 0.8878386 0.4585846 -0.03798275
vn -0.8462045 0.2867984 -0.449093
vn 0 -0.9394889 0.3425792
vn 0.8463426 0.5082824 0.1592268

usemtl marble_01_diff_1k
f 33/92/28 34/93/28 35/94/28
f 37/99/30 40/100/30 39/101/30
f 38/97/29 36/95/29 37/96/29
f 37/96/29 39/98/29 38/97/29
f 39/103/31 40/102/31 41/100/31
f 41/100/31 38/104/31 39/103/31
f 37/106/32 36/99/32 41/100/32
f 41/100/32 40/105/32 37/106/32
f 43/110/33 36/108/33 38/107/33
f 38/107/33 42/109/33 43/110/33
f 44/112/34 41/100/34 36/99/34
f 36/99/34 43/111/34 44/112/34
f 42/115/35 38/113/35 41/100/35
f 41/100/35 44/114/35 42/115/35
f 46/119/36 43/117/36 42/116/36
f 42/116/36 45/118/36 46/119/36
f 47/123/37 44/121/37 43/120/37
f 43/120/37 46/122/37 47/123/37
f 45/127/38 42/125/38 44/124/38
f 44/124/38 47/126/38 45/127/38
f 34/131/39 46/129/39 45/128/39
f 45/128/39 35/130/39 34/131/39
f 33/135/40 47/133/40 46/132/40
f 46/132/40 34/134/40 33/135/40
f 35/139/41 45/137/41 47/136/41
f 47/136/41 33/138/41 35/139/41

g Jump1
v -67.08 -122.76 -25.57
v -66.30354 -122.76 -28.46778
v -65.46712 -120.0411 -26.69074
v -74.18238 -118.9564 -30.57891
v -73.34595 -116.2375 -28.80187
v -74.95884 -118.9564 -27.68113

vt 0 0
vt 3 0
vt 1.5 3
vt 0 -1.341641
vt 9 -1.341641
vt 0 2.012461
vt 9 2.012461
vt -3 0
vt -1.5 3
vt -9 0
vt -9 3.354102
vt 0 3.354102
vt 0 9
vt -3 9

vn 0.8754262 -0.4226181 0.2345698
vn 0.4140553 0.4053132 -0.8150334
vn -0.8754262 0.4226181 -0.2345698
vn -0.04893433 0.4053132 0.9128673
vn -0.4082177 -0.9063079 -0.1093816

usemtl ProBuilderDefault
f 48/140/42 49/141/42 50/142/42
f 51/147/44 53/140/44 52/148/44
f 50/145/43 49/143/43 51/144/43
f 51/144/43 52/146/43 50/145/43
f 52/150/45 53/149/45 48/140/45
f 48/140/45 50/151/45 52/150/45
f 51/153/46 49/147/46 48/140/46
f 48/140/46 53/152/46 51/153/46

g Jump2
v -59.03 -127.28 -9.220001
v -58.25354 -127.28 -12.11778
v -57.41712 -124.5611 -10.34074
v -66.13238 -123.4764 -14.22891
v -65.29595 -120.7575 -12.45187
v -66.90884 -123.4764 -11.33113

vt 0 0
vt 3 0
vt 1.5 3
vt 0 -1.341641
vt 9 -1.341641
vt 0 2.012461
vt 9 2.012461
vt -3 0
vt -1.5 3
vt -9 0
vt -9 3.354102
vt 0 3.354102
vt 0 9
vt -3 9

vn 0.8754262 -0.4226181 0.2345698
vn 0.4140553 0.4053132 -0.8150334
vn -0.8754262 0.4226181 -0.2345698
vn -0.04893433 0.4053132 0.9128673
vn -0.4082177 -0.9063079 -0.1093816

usemtl ProBuilderDefault
f 54/154/47 55/155/47 56/156/47
f 57/161/49 59/154/49 58/162/49
f 56/159/48 55/157/48 57/158/48
f 57/158/48 58/160/48 56/159/48
f 58/164/50 59/163/50 54/154/50
f 54/154/50 56/165/50 58/164/50
f 57/167/51 55/161/51 54/154/51
f 54/154/51 59/166/51 57/167/51

g Jump3
v -44.87 -132.95 -15.12
v -44.09354 -132.95 -18.01778
v -43.25712 -130.2311 -16.24075
v -51.97238 -129.1464 -20.12891
v -51.13595 -126.4275 -18.35188
v -52.74884 -129.1464 -17.23113

vt 0 0
vt 3 0
vt 1.5 3
vt 0 -1.341641
vt 9 -1.341641
vt 0 2.012461
vt 9 2.012461
vt -3 0
vt -1.5 3
vt -9 0
vt -9 3.354102
vt 0 3.354102
vt 0 9
vt -3 9

vn 0.8754262 -0.4226181 0.2345698
vn 0.4140553 0.4053132 -0.8150334
vn -0.8754262 0.4226181 -0.2345698
vn -0.04893433 0.4053132 0.9128673
vn -0.4082177 -0.9063079 -0.1093816

usemtl ProBuilderDefault
f 60/168/52 61/169/52 62/170/52
f 63/175/54 65/168/54 64/176/54
f 62/173/53 61/171/53 63/172/53
f 63/172/53 64/174/53 62/173/53
f 64/178/55 65/177/55 60/168/55
f 60/168/55 62/179/55 64/178/55
f 63/181/56 61/175/56 60/168/56
f 60/168/56 65/180/56 63/181/56

g Jump4
v -32.4 -139.84 -4.699997
v -31.62354 -139.84 -7.597775
v -30.78712 -137.1211 -5.820741
v -39.50238 -136.0364 -9.708902
v -38.66595 -133.3175 -7.931869
v -40.27884 -136.0364 -6.811125

vt 0 0
vt 3 0
vt 1.5 3
vt 0 -1.341641
vt 9 -1.341641
vt 0 2.012461
vt 9 2.012461
vt -3 0
vt -1.5 3
vt -9 0
vt -9 3.354102
vt 0 3.354102
vt 0 9
vt -3 9

vn 0.8754262 -0.4226181 0.2345698
vn 0.4140553 0.4053132 -0.8150334
vn -0.8754262 0.4226181 -0.2345698
vn -0.04893433 0.4053132 0.9128673
vn -0.4082177 -0.9063079 -0.1093816

usemtl ProBuilderDefault
f 66/182/57 67/183/57 68/184/57
f 69/189/59 71/182/59 70/190/59
f 68/187/58 67/185/58 69/186/58
f 69/186/58 70/188/58 68/187/58
f 70/192/60 71/191/60 66/182/60
f 66/182/60 68/193/60 70/192/60
f 69/195/61 67/189/61 66/182/61
f 66/182/61 71/194/61 69/195/61

g Jump5
v -17.8 -146.14 -7
v -17.02354 -146.14 -9.897778
v -16.18712 -143.4211 -8.120744
v -24.90238 -142.3364 -12.00891
v -24.06595 -139.6175 -10.23187
v -25.67883 -142.3364 -9.111128

vt 0 0
vt 3 0
vt 1.5 3
vt 0 -1.341641
vt 9 -1.341641
vt 0 2.012461
vt 9 2.012461
vt -3 0
vt -1.5 3
vt -9 0
vt -9 3.354102
vt 0 3.354102
vt 0 9
vt -3 9

vn 0.8754262 -0.4226181 0.2345698
vn 0.4140553 0.4053132 -0.8150334
vn -0.8754262 0.4226181 -0.2345698
vn -0.04893433 0.4053132 0.9128673
vn -0.4082177 -0.9063079 -0.1093816

usemtl ProBuilderDefault
f 72/196/62 73/197/62 74/198/62
f 75/203/64 77/196/64 76/204/64
f 74/201/63 73/199/63 75/200/63
f 75/200/63 76/202/63 74/201/63
f 76/206/65 77/205/65 72/196/65
f 72/196/65 74/207/65 76/206/65
f 75/209/66 73/203/66 72/196/66
f 72/196/66 77/208/66 75/209/66

g Platform B
v 0 -150.7496 0
v -20 -150.7496 0
v 0 -150.2496 0
v -20 -150.2496 0
v -20 -150.7496 -11
v -20 -150.2496 -11
v 0 -150.7496 -11
v 0 -150.2496 -11

vt 0 0
vt -20 0
vt 0 0.5
vt -20 0.5
vt -11 0
vt -11 0.5
vt 20 0
vt 20 0.5
vt 11 0
vt 11 0.5
vt 0 -11
vt 20 -11
vt -20 -11

vn 0 0 1
vn -1 0 0
vn 0 0 -1
vn 1 0 0
vn 0 1 0
vn 0 -1 0

usemtl marble_01_diff_1k
f 80/212/67 81/213/67 79/211/67 78/210/67
f 81/212/68 83/215/68 82/214/68 79/210/68
f 83/217/69 85/212/69 84/210/69 82/216/69
f 85/219/70 80/212/70 78/210/70 84/218/70
f 85/220/71 83/221/71 81/216/71 80/210/71
f 78/210/72 79/211/72 82/222/72 84/220/72

